<svg xmlns="http://www.w3.org/2000/svg" version="1.1" xmlns:xlink="http://www.w3.org/1999/xlink" xmlns:svgjs="http://svgjs.dev/svgjs" width="1500" height="844" viewBox="0 0 1500 844"><g transform="matrix(1,0,0,1,-0.9084522071641459,-0.7940215857057638)"><svg viewBox="0 0 396 223" data-background-color="#ffffff" preserveAspectRatio="xMidYMid meet" height="844" width="1500" xmlns="http://www.w3.org/2000/svg" xmlns:xlink="http://www.w3.org/1999/xlink"><g id="tight-bounds" transform="matrix(1,0,0,1,0.24008861730862918,0.20979480285826924)"><svg viewBox="0 0 395.52 222.5802435003977" height="222.5802435003977" width="395.52"><g><svg viewBox="0 0 395.52 222.5802435003977" height="222.5802435003977" width="395.52"><g><svg viewBox="0 0 395.52 222.5802435003977" height="222.5802435003977" width="395.52"><g id="textblocktransform"><svg viewBox="0 0 395.52 222.5802435003977" height="222.5802435003977" width="395.52" id="textblock"><g><svg viewBox="0 0 395.52 222.5802435003977" height="222.5802435003977" width="395.52"><path d="M394.594 47.739C392.735 24.635 387.435 18.213 387.435 18.213 371.165-5.584 350.86-0.455 332.619 2.964 300.414 3.103 268.339 8.186 236.208 10.912 168.767 11.328 100.749 4.489 33.643 21.355 27.339 26.53-6.54 22.371 1.121 50.696 3.129 62.479 10.456 75.556 10.232 86.369 11.236 88.263 12.631 83.92 13.226 86.646 15.309 93.993 18.711 90.527 21.501 94.871 17.614 106.469 20.403 116.126 23.062 126.246 18.377 128.88 12.371 127.632 9.675 136.365 9.396 142.696 7.89 141.494 6.235 141.217 5.026 141.032 2.59 141.725 2.999 143.712 4.394 150.505-1.594 154.432 2.162 161.086-0.422 168.295 3.948 174.533 3.353 182.342 3.278 183.913 3.687 185.253 4.338 185.622 7.22 187.609 3.018 191.491 3.464 195.696 33.029 224.437 65.104 204.567 95.394 217.783 103.259 208.541 97.346 221.064 100.489 219.123 102.943 216.859 104.728 226.239 107.499 220.925 107.927 219.4 107.276 215.796 108.8 216.489 109.6 216.859 110.307 216.766 110.418 214.641 110.586 211.452 109.117 213.439 108.726 211.776 112.947 203.366 111.906 223.374 115.866 222.542 115.68 220.093 114.528 216.581 116.889 217.043 119.232 213.532 119.306 210.621 121.389 218.522 121.463 220.232 121.835 221.433 122.43 222.265 128.938 213.67 135.409 225.315 142.233 221.433 146.417 217.182 150.433 223.744 154.672 222.126 156.16 220.833 157.666 218.522 159.098 222.404 176.632 223.235 195.319 219.77 211.943 222.542 256.364 217.367 303.836 224.668 350.674 217.829 361.719 215.195 373.192 211.452 383.958 208.449 383.958 208.449 392.679 200.224 392.679 163.258S394.538 130.913 394.817 101.479C395.096 72.044 396.398 70.843 394.538 47.739Z" opacity="1" fill="#fccb06" data-fill-palette-color="tertiary"></path><g transform="matrix(1,0,0,1,55.76832,26.230666666666668)"><svg width="283.98335999999995" viewBox="1.6 -37.65 62.85 37.65" height="170.11891016706437" data-palette-color="#ffffff"><path d="M6.35 0L1.6 0 17.4-37.65 17.7-37.65 33.45 0 27.9 0 16.1-30.05 19.55-32.3 6.35 0ZM9.45-9.5L10.85-13.7 24.3-13.7 25.9-9.5 9.45-9.5ZM40.25 0L40.25-36.15 63.75-36.15 63.75-31.5 45.1-31.5 45.1-20.5 61.75-20.5 61.75-15.85 45.1-15.85 45.1-4.65 64.45-4.65 64.45 0 40.25 0Z" opacity="1" transform="matrix(1,0,0,1,0,0)" fill="#ffffff" class="wordmark-text-0" data-fill-palette-color="quaternary" id="text-0"></path></svg></g></svg></g></svg></g></svg></g><g></g></svg></g><defs></defs></svg><rect width="395.52" height="222.5802435003977" fill="none" stroke="none" visibility="hidden"></rect></g></svg></g></svg>